<svg width="60" height="60" viewBox="0 0 60 60" fill="none" xmlns="http://www.w3.org/2000/svg">
<rect width="60" height="60" rx="30" fill="#FFF4F0"/>
<path d="M40.5001 31.75H35.2501C34.7859 31.75 34.3408 31.9344 34.0126 32.2626C33.6844 32.5908 33.5001 33.0359 33.5001 33.5V35.25H28.6123L24.7501 31.3878V26.5H26.5001C26.9642 26.5 27.4093 26.3156 27.7375 25.9874C28.0657 25.6592 28.2501 25.2141 28.2501 24.75V19.5C28.2501 19.0359 28.0657 18.5908 27.7375 18.2626C27.4093 17.9344 26.9642 17.75 26.5001 17.75H21.2501C20.7859 17.75 20.3408 17.9344 20.0126 18.2626C19.6844 18.5908 19.5001 19.0359 19.5001 19.5V24.75C19.5001 25.2141 19.6844 25.6592 20.0126 25.9874C20.3408 26.3156 20.7859 26.5 21.2501 26.5H23.0001V31.3878L18.8814 35.5064C18.7174 35.6705 18.6252 35.893 18.6252 36.125C18.6252 36.357 18.7174 36.5795 18.8814 36.7436L23.2564 41.1186C23.4205 41.2827 23.643 41.3748 23.8751 41.3748C24.1071 41.3748 24.3296 41.2827 24.4937 41.1186L28.6123 37H33.5001V38.75C33.5001 39.2141 33.6844 39.6592 34.0126 39.9874C34.3408 40.3156 34.7859 40.5 35.2501 40.5H40.5001C40.9642 40.5 41.4093 40.3156 41.7375 39.9874C42.0657 39.6592 42.2501 39.2141 42.2501 38.75V33.5C42.2501 33.0359 42.0657 32.5908 41.7375 32.2626C41.4093 31.9344 40.9642 31.75 40.5001 31.75ZM21.2501 19.5H26.5001V24.75H21.2501V19.5ZM23.8751 39.2628L20.7373 36.125L23.8751 32.9872L27.0128 36.125L23.8751 39.2628ZM35.2501 38.75V33.5H40.5001V38.75H35.2501Z" fill="#FF8F6B"/>
</svg>
