<svg width="60" height="60" viewBox="0 0 60 60" fill="none" xmlns="http://www.w3.org/2000/svg">
<rect opacity="0.1" width="60" height="60" rx="30" fill="#5B93FF"/>
<path d="M25.1 34.9H30.7V40.5H25.1V34.9ZM30.7 19.5H32.891C37.091 19.5 40.5 22.909 40.5 27.116C40.5 31.316 37.091 34.9 32.884 34.9H25.1L25.1012 24.4H30.7012V29.3H32.891C34.27 29.3 35.6 28.229 35.6 26.85C35.6 25.471 34.27 24.4 32.884 24.4H30.7012L30.7 19.5ZM19.5 29.3012H25.1V34.9L19.5 34.9012V29.3012Z" fill="#5B93FF"/>
<path d="M25.1001 29.3013H30.7001V34.9013H25.1001V29.3013Z" fill="#5B93FF"/>
</svg>
