<svg width="60" height="60" viewBox="0 0 60 60" fill="none" xmlns="http://www.w3.org/2000/svg">
<rect width="60" height="60" rx="30" fill="#EFEFFF"/>
<path d="M21.25 20.5938C21.25 19.99 21.74 19.5 22.3438 19.5H37.6562C38.26 19.5 38.75 19.99 38.75 20.5938V23.6562C38.75 23.9463 38.6348 24.2245 38.4296 24.4296C38.2245 24.6348 37.9463 24.75 37.6562 24.75C37.3662 24.75 37.088 24.6348 36.8829 24.4296C36.6777 24.2245 36.5625 23.9463 36.5625 23.6562V21.6875H31.0938V38.3125H32.4062C32.6963 38.3125 32.9745 38.4277 33.1796 38.6329C33.3848 38.838 33.5 39.1162 33.5 39.4062C33.5 39.6963 33.3848 39.9745 33.1796 40.1796C32.9745 40.3848 32.6963 40.5 32.4062 40.5H27.5938C27.3037 40.5 27.0255 40.3848 26.8204 40.1796C26.6152 39.9745 26.5 39.6963 26.5 39.4062C26.5 39.1162 26.6152 38.838 26.8204 38.6329C27.0255 38.4277 27.3037 38.3125 27.5938 38.3125H28.9062V21.6875H23.4375V23.6562C23.4375 23.9463 23.3223 24.2245 23.1171 24.4296C22.912 24.6348 22.6338 24.75 22.3438 24.75C22.0537 24.75 21.7755 24.6348 21.5704 24.4296C21.3652 24.2245 21.25 23.9463 21.25 23.6562V20.5938Z" fill="#605BFF"/>
</svg>
