<svg width="60" height="60" viewBox="0 0 60 60" fill="none" xmlns="http://www.w3.org/2000/svg">
<rect width="60" height="60" rx="30" fill="#FCEFCC"/>
<path d="M21 42C22.65 42 24 40.65 24 39V28.5C24 26.85 22.65 25.5 21 25.5C19.35 25.5 18 26.85 18 28.5V39C18 40.65 19.35 42 21 42ZM36 34.5V39C36 40.65 37.35 42 39 42C40.65 42 42 40.65 42 39V34.5C42 32.85 40.65 31.5 39 31.5C37.35 31.5 36 32.85 36 34.5ZM30 42C31.65 42 33 40.65 33 39V21C33 19.35 31.65 18 30 18C28.35 18 27 19.35 27 21V39C27 40.65 28.35 42 30 42Z" fill="#FFC327"/>
</svg>
